# xmcd
#
# Track frame offsets:
#	150
#	8137
#	16245
#	23952
#	31307
#	38670
#	46287
#	53587
#	60800
#	67760
#	75190
#	82435
#	89585
#	97032
#	104357
#	111250
#	118862
#	126045
#	133527
#	140757
#	149562
#	158145
#	167057
#	176050
#	185092
#
# Disc length: 2587
#
# Revision: 1
# Processed by: cddbd v1.5.1PL0 Copyright (c) Steve Scherf et al.
# Submitted via: CDex 1.60beta1
# Normalized: r0:DSETVAR1,TDELIM( - )
#
DISCID=530a1919
DTITLE=Various Artist - さわりで覚えるジャズの名曲25選
DYEAR=2004
DGENRE=Jazz
TTITLE0=Art Blakey - A Night In Tunisia (アート・ブレイキー - チュニジアの夜)
TTITLE1=Sonny Rollins - Softly, As In aMorning Sunrise (ソニー・ロリンズ - 朝日のようにさわやかに)
TTITLE2=Sonny Clark - Cool Struttin' (ソニー・クラーク - クール・ストラッティン)
TTITLE3=John Coltrane - Blue Train (ジョン・コルトレーン - ブルー・トレイン)
TTITLE4=Dexter Gordon - Le Coiffeur, Manha De Canaval (デクスター・ゴードン - 黒いオルフェ)
TTITLE5=Bud Powell - Cleopatora's Dream (バド・パウエル - クレオパトラの夢)
TTITLE6=Cannonball Adderley - Autumn Leaves (キャノンボール・アダレイ - 枯葉)
TTITLE7=Wayne Shorter - Yes Or No (ウエイン・ショーター - イエス・オア・ノー)
TTITLE8=Herbie Hancock - Maiden Voyage (ハービー・ハンコック - 処女航海)
TTITLE9=Joe Henderson - Blue Bossa (ジョー・ヘンダーソン - ブルー・ボッサ)
TTITLE10=Miles Davis - Dear Old Stockholm (マイルス・デイヴィス - ディア・オールド・ストックホルム)
TTITLE11=Thelonious Monk - Round About Midnight (セロニアス・モンク - ラウンド・アバウト・ミッドナイト)
TTITLE12=Freddie Hubbard - Open Sesame (フレディ・ハバード - オープン・セサミ)
TTITLE13=Tina Brooks - True Blue (ティナ・ブルックス - トゥルー・ブルー)
TTITLE14=Jackie McLean - Sweet Love Of Mine (ジャッキー・マクリーン - スイート・ラヴ・オブ・マイン)
TTITLE15=Horace Silver - Song For My Father (ホレス・シルヴァー - ソング・フォー・マイ・ファーザー)
TTITLE16=Kenny Dorham - Afrodisia (ケニー・ドーハム - アフロディジア)
TTITLE17=Lee Morgan - The Sidewinder (リー・モーガン - ザ・サイドワインダー)
TTITLE18=Hank Mobley - Ricado Bossa Nova (ハンク・モブレー - リカード・ボサ・ノヴァ)
TTITLE19=Grant Green - Joshua Fit The Battle Of Jericｈo (グラント・グリーン - ジェリコの戦い)
TTITLE20=Kenny Burrell - Lady Be Good (ケニー・バレル - レディ・ビー・グッド)
TTITLE21=Jimmy Smith - A Saint Comes To A Town (ジミー・スミス - 聖者が街にやってくる)
TTITLE22=Stanley Turrentine - Going Home (スタンリー・タレンタイン - ゴーイン・ホーム)
TTITLE23=Albert Ammons - boogie Woogie Stomp (アルバート・アモンズ - ブギ・ウギ・ストンプ)
TTITLE24=Sidney Bechet - Summertime (シドニー・ベシェ - サマータイム)
EXTD=YEAR: 2004
EXTT0=
EXTT1=
EXTT2=
EXTT3=
EXTT4=
EXTT5=
EXTT6=
EXTT7=
EXTT8=
EXTT9=
EXTT10=
EXTT11=
EXTT12=
EXTT13=
EXTT14=
EXTT15=
EXTT16=
EXTT17=
EXTT18=
EXTT19=
EXTT20=
EXTT21=
EXTT22=
EXTT23=
EXTT24=
PLAYORDER=
